/* XPM */
static char *blueMoonImageFlipped[] = {
/* width height num_colors chars_per_pixel */
"    66    66      232            2",
/* colors */
".. c #182028",
".# c #1d2731",
".a c #1e2933",
".b c #24313d",
".c c #25323f",
".d c #263441",
".e c #273542",
".f c #293846",
".g c #2a3948",
".h c #2c3b4a",
".i c #0c1014",
".j c #2d3d4d",
".k c #2e3f4f",
".l c #304051",
".m c #344658",
".n c #36495c",
".o c #374b5e",
".p c #394d61",
".q c #3d5368",
".r c #40576d",
".s c #445c74",
".t c #465f77",
".u c #476079",
".v c #48617a",
".w c #49637c",
".x c #4a647d",
".y c #4b6680",
".z c #4c6782",
".A c #4d6883",
".B c #4e6a85",
".C c #4f6b86",
".D c #516d89",
".E c #516e8a",
".F c #526f8c",
".G c #53708d",
".H c #54728f",
".I c #557391",
".J c #567593",
".K c #577694",
".L c #587796",
".M c #597998",
".N c #5b7b9a",
".O c #5b7b9b",
".P c #5c7c9c",
".Q c #5d7e9e",
".R c #5e7f9f",
".S c #5f80a1",
".T c #5f81a2",
".U c #6082a3",
".V c #6183a5",
".W c #6284a6",
".X c #6285a7",
".Y c #6487aa",
".Z c #6588ab",
".0 c #6589ac",
".1 c #668aad",
".2 c #678baf",
".3 c #688cb0",
".4 c #688db1",
".5 c #698eb2",
".6 c #6a8fb4",
".7 c #6a90b5",
".8 c #6b91b6",
".9 c #6c92b7",
"#. c #6c92b8",
"## c #6d94ba",
"#a c #6e95bb",
"#b c #6f96bc",
"#c c #6f96bd",
"#d c #6f96bd",
"#e c #7097be",
"#f c #7199c0",
"#g c #729ac1",
"#h c #729ac2",
"#i c #739bc3",
"#j c #739cc4",
"#k c #749dc5",
"#l c #749ec6",
"#m c #759ec7",
"#n c #759ec7",
"#o c #769fc8",
"#p c #76a0c9",
"#q c #77a1ca",
"#r c #77a2cb",
"#s c #78a2cc",
"#t c #79a3cd",
"#u c #79a3cd",
"#v c #79a4ce",
"#w c #7aa5cf",
"#x c #7aa6d0",
"#y c #7ba6d1",
"#z c #7ca7d2",
"#A c #7ca7d2",
"#B c #7ca7d2",
"#C c #7ca8d3",
"#D c #7da9d4",
"#E c #7daad5",
"#F c #7eaad6",
"#G c #7eaad6",
"#H c #7eabd7",
"#I c #7facd8",
"#J c #80add9",
"#K c #80add9",
"#L c #80add9",
"#M c #80add9",
"#N c #80aeda",
"#O c #81aedb",
"#P c #81afdc",
"#Q c #81afdc",
"#R c #82b0dd",
"#S c #82b0dd",
"#T c #83b1de",
"#U c #83b1de",
"#V c #83b2df",
"#W c #83b2df",
"#X c #83b2df",
"#Y c #84b2e0",
"#Z c #84b3e1",
"#0 c #85b4e2",
"#1 c #85b4e2",
"#2 c #85b4e2",
"#3 c #85b4e2",
"#4 c #86b5e3",
"#5 c #86b6e4",
"#6 c #86b6e4",
"#7 c #86b6e4",
"#8 c #86b6e4",
"#9 c #87b6e5",
"a. c #87b6e5",
"a# c #87b7e6",
"aa c #87b7e6",
"ab c #87b7e6",
"ac c #87b7e6",
"ad c #88b8e7",
"ae c #88b9e8",
"af c #88b9e8",
"ag c #89b9e9",
"ah c #89b9e9",
"ai c #89b9e9",
"aj c #89b9e9",
"ak c #8abaea",
"al c #8abaea",
"am c #8abbeb",
"an c #8abbeb",
"ao c #8abbeb",
"ap c #8abbeb",
"aq c #8bbcec",
"ar c #8bbcec",
"as c #8bbded",
"at c #8bbded",
"au c #8bbded",
"av c #8bbded",
"aw c #8cbdee",
"ax c #8cbdee",
"ay c #8cbdee",
"az c #8cbdee",
"aA c #8dbeef",
"aB c #8dbeef",
"aC c #8dbeef",
"aD c #8dbeef",
"aE c #8dbeef",
"aF c #8dbff0",
"aG c #8dbff0",
"aH c #8dbff0",
"aI c #8ec0f1",
"aJ c #8ec0f1",
"aK c #8ec0f1",
"aL c #8ec0f1",
"aM c #8ec1f2",
"aN c #8ec1f2",
"aO c #8ec1f2",
"aP c #8ec1f2",
"aQ c #8ec1f2",
"aR c #8fc1f3",
"aS c #8fc1f3",
"aT c #90c2f4",
"aU c #90c2f4",
"aV c #90c2f4",
"aW c #90c2f4",
"aX c #90c2f4",
"aY c #90c3f5",
"aZ c #90c3f5",
"a0 c #90c3f5",
"a1 c #90c3f5",
"a2 c #91c4f6",
"a3 c #91c4f6",
"a4 c #91c4f6",
"a5 c #91c4f6",
"a6 c #91c4f6",
"a7 c #91c4f6",
"a8 c #91c5f7",
"a9 c #91c5f7",
"b. c #91c5f7",
"b# c #91c5f7",
"ba c #91c5f7",
"bb c #91c5f7",
"bc c #92c5f8",
"bd c #92c5f8",
"be c #92c5f8",
"bf c #92c5f8",
"bg c #92c6f9",
"bh c #92c6f9",
"bi c #92c6f9",
"bj c #92c6f9",
"bk c #92c6f9",
"bl c #92c6f9",
"bm c #93c7fa",
"bn c #93c7fa",
"bo c #93c7fa",
"bp c #93c7fa",
"bq c #94c8fb",
"br c #94c8fb",
"bs c #94c8fb",
"bt c #94c8fb",
"bu c #94c8fb",
"bv c #94c8fb",
"bw c #94c9fc",
"bx c #94c9fc",
"by c #95c9fd",
"bz c #95c9fd",
"bA c #95c9fd",
"bB c #95c9fd",
"bC c #95c9fd",
"bD c #95c9fd",
"bE c #95c9fd",
"bF c #95cafe",
"bG c #95cafe",
"bH c #95cafe",
"bI c #95cafe",
"bJ c #95cafe",
"bK c #96cbff",
"bL c #96cbff",
/* pixels */
".i.i.i.i.i.i.i.i.i.i.i.i.i.i.i.i.i.i.i.i.i.i.i.i.fanbma5bsbabvbFbvaXbhbca0aTaY#v.j.i.i.i.i.i.i.i.i.i.i.i.i.i.i.i.i.i.i.i.i.i.i.i.i.i",
".i.i.i.i.i.i.i.i.i.i.i.i.i.i.i.i.i.i.i.i.h.daRbAa7baa1bcaVbCaObvaTbmbmbbaPaya8aTb#btbf.l.i.i.i.i.i.i.i.i.i.i.i.i.i.i.i.i.i.i.i.i.i.i",
".i.i.i.i.i.i.i.i.i.i.i.i.i.i.i.i.i.i.iataXa8avaraKaFawaDaSasaXaKa1b.bmbDbCbob#bva7aXaPaLaFbc.i.i.i.i.i.i.i.i.i.i.i.i.i.i.i.i.i.i.i.i",
".i.i.i.i.i.i.i.i.i.i.i.i.i.i.i.i.iaSaiac#TaAakaqadalaxbbaN#5aAakataLa8bdbiacaNa9aQaLaUbma4bibiaL.j.i.i.i.i.i.i.i.i.i.i.i.i.i.i.i.i.i",
".i.i.i.i.i.i.i.i.i.i.i.i.i.i.i.uaC#Uan#R#XaxakaoabaLasavaiaHatataTbyaZaaboapaaaDaJ#6aEa3a0a6aKaGbDaL.i.i.i.i.i.i.i.i.i.i.i.i.i.i.i.i",
".i.i.i.i.i.i.i.i.i.i.i.i.i.i#M#2#J#WaoakaMa.a#aeauawavawataxaHadb.aWbzaSaUaCa.b#atab#Yaa#N#AaTaNagauaD.i.i.i.i.i.i.i.i.i.i.i.i.i.i.i",
".i.i.i.i.i.i.i.i.i.i.i.i.c#HaGapaqa#agaiayamabaOabau#7aQaQaRbgavbtawaMbnbjbla3aJam#P#TaAadai#7abaoaE#5aB#X.i.i.i.i.i.i.i.i.i.i.i.i.i",
".i.i.i.i.i.i.i.i.i.i.i.Ca#a##X#zasaAaPazaC#X#P#NakaladafaHbibcbcbkaZbfa9a5aFa8aiaxacaxaCasaJaaadaK#L###Eazad.i.i.i.i.i.i.i.i.i.i.i.i",
".i.i.i.i.i.i.i.i.i.i.1#O#M#J#9aGag#PaAavam#TaC#Wadao#Papaoa4a6b#b.aIaxaxaIbba9aDay#O#TaKa3aBar#Q#KaAac#8#Oag#W.i.i.i.i.i.i.i.i.i.i.i",
".i.i.i.i.i.i.i.i.i#I#B#A#CalalaiaRad#Sag#9a5aCafbB#SazbLa9a6bDbxbxaTa.bibDaVa3apaLa1ayaoazaabjaB#Yaa#1#xar#l#5ad.i.i.i.i.i.i.i.i.i.i",
".i.i.i.i.i.i.i.i#Gae#L#7an#0#PabaNaa#q#UaNaBasaBbaauambtaFaKbebcbqaVay#ZafaSaXb.axau#YbraraDaUaE#D#RaE.V#q#L#Ga.a#.i.i.i.i.i.i.i.i.i",
".i.i.i.i.i.i.i#Eapaj#RaL#Y#0#ta##UaDauao#Oavaya8aD#IaLaSbpbkbfbja9bsa4a7baaXaMasaK#N#jaHaAaEa#acajaval#S#p#N#Kaaakan.i.i.i.i.i.i.i.i",
".i.i.i.i.i.i.U#va.aDaF#J#Vaeaia.#K#Xagae#Oaeab#TakaPbpaKa5a3aGbsbFbnbwbCa9bsaTasaCaeaGasaCapaoay#G#I#R#E#v#zag#iaLaa#N.i.i.i.i.i.i.i",
".i.i.i.i.i.i#9aibDaGavab#Waca.#Pakalaf#Y#RapaFaDahbaawavbva8aJbrbwbEbfbnbdbibsbea#ayag#3#L#6#z#3aB.W.Kag#Qab#K#J#k#Yae.b.i.i.i.i.i.i",
".i.i.i.i.i#KbjaBaFbFar#Lakax#0#MaraJayaCaobqaUabanaha.aVaWbcaAbibFbwaZbnaUaP#5aJa8aN.W#U#c#RaE#taqan.P#1#N#2#J#n#G#L#1#U.i.i.i.i.i.i",
".i.i.i.iada5aoasaSaW#2ad#1ac#Radaramad#YawaRazab#2aiafa2aTaPbiawa4a9bfaWaK#eaiaKaSab#0aJ.s.Kaz#U.4#x#LaxbjbHacaa#g#I.0#J#L.i.i.i.i.i",
".i.i.i.i#9aeaIa6a.apae#S#9#UadaNadae#5a5anai#L#ZaFbsaA#9btbea8aOaVa8aea.#3#d#Q.7#yaJ.1.Q.U#Q#Y.U.L.T#TanaAaFaE#Zag#g#I#r#U.j.i.i.i.i",
".i.i.i#SaiaCa##R#4ayacaq#VaiaEaaakaSbyag#T#P#Vbna4a9a2#T#Ibka0aoaWaF.9.V.X.S.U.H.P.V.Q#aaa#b#E.R.J.x.y.x#ZaNaTaq#0aj.O#w#sam.i.i.i.i",
".i.i.iab#Zaa#8#mao#R#H#oakak#KambcaQ#7aH#O#0bhbDaMawaDaebxaIauamaQ#J#u#u.W.S.W.N.J#a#N.G.V.8.Q.y.L.C.L.N.N.4aia3#4#1aV#t#Y#S.i.i.i.i",
".i.iaw#1#Qax#q.7#IaE#gayag#7#Ja0aTauaPadamapaVasasabaf#2akaCaEaoaGaD#O.5#d.S.X.1.J#..U#c.S.B#Q.B.D.w.I.F.UaD#8aE#1aubja6#u#yap.i.i.i",
".i.ia##OaBbc.V#S#gad#y.V.Q#Da2aAalaPaOadanaMagatal#8#Uas#3asaga0aMaC#I.R#c.8.Q#m.T#.#t#z.X#Kah.I.y.B.O.B.Saf#7#H#QakasbfakakaO.i.i.i",
".i#Q#y#M#K#J#p#sa.#kal.U#a#d#NasbyaBafaeaG#0acayatagasaFayalaMaNaraPam.T#c.K.7.5.V.P.U.4ao#f#f#r.N.y.F.V#Sa4aCan#IaiabaBahaJaj.i.i.i",
".hatad#j#H.1#Larauarbh.0#d#v#NaRbvaPaNaB#YaIakaNbGaSaNaC#8aaakaOasaj##.X#f#q#d#f#b.S.Oaz#X.B.M.KaC.Pbza#bgac#J#P#0#4ac#7#4ayasah.i.i",
".ia#ah#Q#m.8aS#P#3aRal#b.5#y.YblaTbtaIaGazaIaSaAaOaxarac#0ayaCaBaw#d.7#e.U##.Z###w.8#daSag.H#c.8#j.San#9aj#S#L#Mav#O#1#1#k#P#R#X.i.i",
".baFbl#C#f#s.8#CapaX.7#g.7#RasaVbvbEb#aza7b#auaEa4adaYaCaL#Naua9aB.3.4#b.X.V#K#x#X.Z#r#P#g#p.F.R.W.8aoaw#P#P#P#Gahayal#5#Xafa##Y.i.i",
"aK#W#Zal#i.6.5aa#GaTaw#N#l#C#OataXbkblb.bfbqaJaraDaQa8#Sah#9aaaTaAat#N#d#Baaav#m#q.S.X.N.V.1.Z.I.T#f#had#N#f.X#N#X#jaCaL#Mahasai.V.i",
"avahbgag#r.R.Z#BaqbeahaUaua##t#XafaZbwaIbwaCaCaDaxaDajapah#Q#9#YaHasah.Q.Q.Qa##v.4.R#d.Y.T#y#f.Z###d.G#9.6.V#O.6ab.S#Hakamauadadao.i",
"ahaEaF###w.W##.8#lafbpaLas#7#b#L#J#3aWaVaG#9bmaLaRbnaF#8aUa.afahaCataD#b.4.Ta.aa#x#e#a.Q.SaW#L#M.5.7.X#s.5.3.8#c.Y.S#p#Waf#XaNad#..h",
"am#J#x#A.U.S.8.9#w#OavaDaO#7#g#z#takaUbBaLamaCaEa7btaKavacalasataDagaza3.5#r#Oa.#Y.6.3.4#f#3az#.#d.4#S.9.8.6.R.5####.4#R#8aja.a.aJ.i",
"asaP#e#d.T#e.8#.#wavacacaZ#2#v#a#7aPbsbkaObqavaMaHaCaUaAazaNaLaIafalaCaA#v#K#P#Ra.#Y.Z#L#P#b#s.T#J#c.R#t.6#c.5#b.0.T.X#jaI.y#Catab.i",
"aj#z#j#c.7.R#r#a.VataOatbd#1#a#daWana0aCahaJaqaCapa4aKapacadagadaVaraa#L#P#b#u#Z#u#b#L.6#kaf#c#r#i#b.F#q#d.8#h#I#c.3.7#N#X.2#k#Jat.c",
"#5.0#s.E.P.T#i#eajayazaWbJ.5#g#cbb#haDakaBataLaUaDaLaVbeab#6#aafaKat#L#i#bar#i#T#q.4#j#u#M#z.6#c#K#h.X#e#c#f.3#b#d#b##.4a#bgas#P#I.x",
"aS.S#K.V.I.S.1.5ad.U.GaC#T.R.V##.T.H#Z#SadataRblaMa1aOar#O#1.5#L#K#Y#p#f.V#g.T#Tah.Vae#h#H#O#s#g#g#b#f#g.7.4#h#j#u#b#d.9#h#Qau#u#C.X",
"aV#l#Das.Q.R.2#3#s.X#b#g#u#d.T.R.S.Z.W#l#xanbGbsa1azaCah#J#T#I#l.7#k.P.Zaw.8.8#n#Ra.#5#H#S#t#s.6#ta.#K#q#c#d#h#b##.8.9.Z#aawahaiaf.p",
"aS#O#zaaan.VaG#K.Z.O#e#V#k.9.K.7.S#d#E#ua#auaubzbbaKabbe#O#8#8#5###a.Z.X#m#l.Y#i#Ba##Vad#w#g#l#H#eah#z#r.7#h.5#i#n.6.6.2.8akaLaG#J.e",
"#I.DaJauaf#H#K#k.3.W#..W#c#s#c#b#z#f#.#t#HayaOaFay#qaFan#Sauaka##z.X.L#u#y.3.4#Q#J#Cahauac#N#A#y#eaB#0#O#D#v#j#h#x#g.6#b#uafasaha..c",
"#U#5#4afa0aH#e#qa..M.U.S.Y.Z.T.G#f.U.S.Sa#aJas#y#b#x#Q#Iaaaw#V#3#g.Q#g#H#s#d#z#I#B#J#Pat#v#4#h.4#NaCar#R#k#u#c#g#g#c#r.8.3axah#0#V.i",
"aBaMak.OaUaXaW#i.2.6.I.Q.1.U.1#d.K.O.I.XaA#.ah#j#x.P.Z#.#Wa.#F#q.M.W.Y#o#R#X#OadaRaSap#9#B#R#f.8#8atbb#U#v#e.3#.#j#oab.6.T#va#aG#q.i",
"aVav#..Q.Oavbtal.J.F.N.V.T.X#c.8.T.Y.J.3.5aZ.Z#f#D.N.E.T.S.U#f.z.Q.0#c#vav#T#Z#Kbkbra#a#av#W#w.X#u#GaH#O#d#h#g#i#c#d#d.8.3#Oah#K#B.i",
"#2a#.B.K.Q#ea9auaU.H.K.X.K.6.4.T.Q.L.T#2avaY#S#0#q.0.Y.4.V.R.3.D.R.U#C#L#A#2#E#4ab#3ahanaM#F#e.0###H#L#q#D#n#i#D#r#d#f.0###o.1#P#j.i",
".obb.W.M.K.0ax#6alai.R.X#E.2.X.J.Q#P#0#Dbvas#B#WbF#y.U.V.Q#f#O#D#L.M.T#V#R#7#N#Ua.#7#M#D#K#8#p#y#e#L#M#q#f#u#s#i#a#d.5#..2.S.TaV.q.i",
".ibn.A.R.W.Ga6aZaX#N.P.6#z##.S.R.7.H.B.X.F#q#..1.Q#d#h#t#s#ia##J#5acad#N#W#L#P.X#c#Kad#Has#3#r#e#vaD#O#J#v#v#K#a#i.5.6#b.3.V#e#L.i.i",
".ibc.3.K.0.7#Aa4aUaK#l#l#xazaq.J.Q.0.U#..X.S.D#w.6#y.Y#r##aEaa#7#a#u.5#j#f#b#L#e#m#da##S#g#J#j#x#g#J#G#M#B#o#c#A#r#b.5.R#h#O#I#B.i.i",
".iaYa3.X#k.U.6arap#9bn.7apaL.D.R.W.U.W.0#G.G.R.K.x.U#Q#HaKax#P.F.G.O.M.6.3#d#k.5#c.7#u#r.8#y#i#s#j#uah#G#q#t#i#d#g.3.3##.X.Y#Q.X.i.i",
".i.ibca#.C.Tamae#X.SaQagaQad#u.F.X.T.S.V#J.Q.R.R.B.T#t#DaeaDaE.2.G.3.P#b.R.S#O#w.U.W#w#y#U#K#D#iaJ#g#M#K#x#K#x#j#f#e#f#d.W#G#1.i.i.i",
".i.ibFbA#Oaaaw#8aaataDaEbkbuat.t.S#a.5.3.Y.R.R.E.B.A#fa.#1#o#N#F#y.U.V#b.1.S#s#d.9#m#w.R#W#g###e#e#h#Uab#Iah#5#v#b#v#O#a.6#.#n.i.i.i",
".i.i.faMaAb##Iasauasawavbrbr#W.y.x.X.W.U.S#..W.X.N.X.R#s.y#d#t#M#zab.1#d#g.X#l.R#c#b.3.Y#i#j#e#b.9#K#Vafahac#n#f#a#t#a#C#h.V.i.i.i.i",
".i.i.ibzaZbkaQazbcaSaDaTaRa6ax.4.W.R.8#..W#g.K.6#f.T.R.8#L#b#a#fau#K#f#y#1.1.6.R#c#k#j###a#q#D#F#Jas#U#Obk#N#C#v#q#j.6#c.2.6.i.i.i.i",
".i.i.i.#braCbraIaBbbamaEa9aLasbK.Q.G.T.3.I.T.G.z.U.N.T.y#I#y#Q#ia..I.D.W.F.I.0.Z.Z.T.X.R.0#h#k#b#v.8#w#P#b#C#v#g#g#e#E#a.Y.j.i.i.i.i",
".i.i.i.ibybbaoa5aFataRaTa2aN#KaTal.W.S.9.L.U.M.x.G#s.T.S#o#s#O#i.N.S.P#..R.T.R.T.D.T.J.V.S.5.7#J#w#p#P#D#M#k#j#i#c#p#h.J.0.i.i.i.i.i",
".i.i.i.i.ibcaTbuaCaFbna5aq#M.H#Ta9.O.U.u.9.R.L.9.taF.0.G#D#K.2.O.R.C.S.S.L.U.L.L.K.S.M.Q.1.9.U#f#f.2#q#x#A#f#d#d#e#L.T#w.i.i.i.i.i.i",
".i.i.i.i.i#taJaqbqbdaM#PaMaS.2.P#D.6#Fam#S#b.t.v#Eav#X.W.r.M#f.7.0.K.3.T.Y.N.V.F.K.S#c#b.W.L.2ad#c#s#B#e.4.5#b.9#m.0#t.n.i.i.i.i.i.i",
".i.i.i.i.i.ibEaGaNataA#AaBax.V.Sad#l#G.NaCaIaBayat#1#G#Q.H#sal#K#E.3.8.2.X.O.F.R.M.N.J.P.D.R.3az#r#g#E#i#d#f#o##.2.4#G.i.i.i.i.i.i.i",
".i.i.i.i.i.i.ibEa7#WaS#vbLataKamas#Gas#o#taBaDaobaav#Lad#C#d#j.U.T.L.X.4.N.I.0.L.D.N.A.P.N#f#Y#6am.0#h#.#J###f.V.1#P.i.i.i.i.i.i.i.i",
".i.i.i.i.i.i.i.ibd.t#TauauaM#S#5afataH#IalagapaPa3aJ#0aq#v#..E.G.K.z#b.O.V.O.s.O.J.K.C.Rayazakaxaa.X.2#q.7#..Uawae.i.i.i.i.i.i.i.i.i",
".i.i.i.i.i.i.i.i.jbDbr#.aoa2#Salahae#9aS#pawata2ae#Hamabax#K.Q.W.I.Q.Y.U.9.X.Q.K.Q#i.U.RaMacaiae.2.T#W#d#g.6.0#y.h.i.i.i.i.i.i.i.i.i",
".i.i.i.i.i.i.i.i.i.jbla1a#a5bcaSa8ab#X#QaMajab#6#U#U#pahanaaaW##.N.z#t.P.A.S.T.T.2#a.6.Ra9aAaCaI#f#X#q#M#w.8ao.i.i.i.i.i.i.i.i.i.i.i",
".i.i.i.i.i.i.i.i.i.i.ibqbeboaJaEaGaMav#3#.#W#UataF#l#D#TalbwaJ#D#G#E#i#U.z.U#3aH#1aeaTaDaS#w#e.F#A#O#P#E.8aw.i.i.i.i.i.i.i.i.i.i.i.i",
".i.i.i.i.i.i.i.i.i.i.i.ibIbrawbDaKbo#f.N#e#a.5#g.3#t#i#p#x.AaQ#w#Z.x#RaZa.#S#Xawanafar#F#T#b.9.E#K#z#xaOay.i.i.i.i.i.i.i.i.i.i.i.i.i",
".i.i.i.i.i.i.i.i.i.i.i.i.i.ga7a7bcbeaV#L.O.R.T#z.G#d#S#C.K#s.SaNa7#7#2.R.MaP#J#Zam.F.Z#c.0#i#TaHaU.Yas...i.i.i.i.i.i.i.i.i.i.i.i.i.i",
".i.i.i.i.i.i.i.i.i.i.i.i.i.i.ibEaTa2bCaSan#V#Zaa#SaAac#y#L#j.C.x.1.E.9.R.T.Y.0#Qa.#Eau#SaBaIaYaTay#8.i.i.i.i.i.i.i.i.i.i.i.i.i.i.i.i",
".i.i.i.i.i.i.i.i.i.i.i.i.i.i.i.i.ibDbBbEaw#6ag#O#j#Saxad#y#M#O#Wap#K.X#f#Z#f#g#Vaf#7aXaKa7ata9ak.i.i.i.i.i.i.i.i.i.i.i.i.i.i.i.i.i.i",
".i.i.i.i.i.i.i.i.i.i.i.i.i.i.i.i.i.i.ibFb.baawa#amagaa#tah#9aOaeagajabajahaFahaBataVaJawaKaP.i.i.i.i.i.i.i.i.i.i.i.i.i.i.i.i.i.i.i.i",
".i.i.i.i.i.i.i.i.i.i.i.i.i.i.i.i.i.i.i.i.i.pbtbvaPanauauaIaVblbua8aZapataE#KaeaHb#bu#8.a.i.i.i.i.i.i.i.i.i.i.i.i.i.i.i.i.i.i.i.i.i.i",
".i.i.i.i.i.i.i.i.i.i.i.i.i.i.i.i.i.i.i.i.i.i.i.i.ibzbjbsbububwbgbubta7a6btbqa7aK.h.i.i.i.i.i.i.i.i.i.i.i.i.i.i.i.i.i.i.i.i.i.i.i.i.i",
".i.i.i.i.i.i.i.i.i.i.i.i.i.i.i.i.i.i.i.i.i.i.i.i.i.i.i.i.i.i.f.k.m.l.g.i.i.i.i.i.i.i.i.i.i.i.i.i.i.i.i.i.i.i.i.i.i.i.i.i.i.i.i.i.i.i"
};
