/* XPM */
static char * earth_xpm[] = {
"21 19 3 1",
" 	c None",
".	c #000000",
"+	c #FFFFFF",
".....................",
".......+++++++.......",
".....+++++++++++.....",
"....+++...+...+++....",
"...+++....+....+++...",
"...++.....+.....++...",
"..++......+......++..",
"..++......+......++..",
"..++......+......++..",
"..+++++++++++++++++..",
"..++......+......++..",
"..++......+......++..",
"..++......+......++..",
"...++.....+.....++...",
"...+++....+....+++...",
"....+++...+...+++....",
".....+++++++++++.....",
".......+++++++.......",
"....................."};
