/* XPM */
static char * jupiterGImpScaled_xpm[] = {
"20 19 263 2",
"  	c #000000",
". 	c #020203",
"+ 	c #090A0B",
"@ 	c #0D0E0E",
"# 	c #0E0E0E",
"$ 	c #090A0A",
"% 	c #040405",
"& 	c #3F3F3F",
"* 	c #777674",
"= 	c #9A9A9A",
"- 	c #AEAEAC",
"; 	c #AFAFAE",
"> 	c #9E9D9C",
", 	c #787877",
"' 	c #454442",
") 	c #24231F",
"! 	c #B7B29F",
"~ 	c #DCD7BF",
"{ 	c #EAE4C9",
"] 	c #E7E0C4",
"^ 	c #E6DFC2",
"/ 	c #E5DFC5",
"( 	c #E7E1C6",
"_ 	c #E4DEC7",
": 	c #E0DAC4",
"< 	c #BDB8A6",
"[ 	c #262522",
"} 	c #403D31",
"| 	c #F2EBC5",
"1 	c #F0E9C2",
"2 	c #F2E9C0",
"3 	c #F3ECC4",
"4 	c #F2EAC2",
"5 	c #F3EBC6",
"6 	c #F2EBC7",
"7 	c #E9E1BC",
"8 	c #EBE2B6",
"9 	c #EAE1B4",
"0 	c #EEE6BA",
"a 	c #F6EEC6",
"b 	c #413F36",
"c 	c #3F3D34",
"d 	c #F0E7BC",
"e 	c #F9F3CC",
"f 	c #F7F1C8",
"g 	c #F8F1CC",
"h 	c #F9F2CF",
"i 	c #F9F3D1",
"j 	c #F8F2D3",
"k 	c #F6F0D0",
"l 	c #F7F1D2",
"m 	c #F9F4D5",
"n 	c #F6F0CF",
"o 	c #F5EFCC",
"p 	c #F3ECC5",
"q 	c #F0E9C8",
"r 	c #141414",
"s 	c #C0BFB8",
"t 	c #FCF9F1",
"u 	c #FCFAF3",
"v 	c #FBF9EF",
"w 	c #FDFCF1",
"x 	c #FCFBF3",
"y 	c #FDFBF1",
"z 	c #FCFAF0",
"A 	c #FBF9F0",
"B 	c #FCFAEF",
"C 	c #FDFBF2",
"D 	c #FDFBF3",
"E 	c #FDFAF1",
"F 	c #4D4B40",
"G 	c #F6EEC7",
"H 	c #F7F0C3",
"I 	c #F5ECB2",
"J 	c #F9F4CB",
"K 	c #F5EDC2",
"L 	c #F1E7A7",
"M 	c #F4EAAB",
"N 	c #F5ECB0",
"O 	c #F2E9B3",
"P 	c #F9F2C7",
"Q 	c #FAF4C7",
"R 	c #F4ECBD",
"S 	c #F5EDB6",
"T 	c #F7EFBF",
"U 	c #F6EEBE",
"V 	c #F8F0CE",
"W 	c #4E4D45",
"X 	c #040402",
"Y 	c #7D754C",
"Z 	c #E3D485",
"` 	c #D3C579",
" .	c #DDCD7C",
"..	c #E2D384",
"+.	c #D6C678",
"@.	c #D4C57E",
"#.	c #CEC181",
"$.	c #D8CA84",
"%.	c #D5C889",
"&.	c #D1C37F",
"*.	c #CBBD7B",
"=.	c #D7C87D",
"-.	c #E1D284",
";.	c #DDCF83",
">.	c #D6C77B",
",.	c #DDCE85",
"'.	c #81794F",
").	c #040403",
"!.	c #090907",
"~.	c #AEA788",
"{.	c #F0E7B9",
"].	c #DED8B9",
"^.	c #F2EDCE",
"/.	c #F9F3CF",
"(.	c #F1EABE",
"_.	c #E4DAAE",
":.	c #E1DBBE",
"<.	c #F3ECD0",
"[.	c #ECE5CA",
"}.	c #E5DDC1",
"|.	c #E0D9BF",
"1.	c #F2ECCC",
"2.	c #F6F0CA",
"3.	c #F2EABE",
"4.	c #DDD5B0",
"5.	c #E7DFBF",
"6.	c #B3AE94",
"7.	c #0B0A09",
"8.	c #0B0B09",
"9.	c #BAB496",
"0.	c #F1E9BE",
"a.	c #F3EBB9",
"b.	c #F8F3C9",
"c.	c #EAE1BA",
"d.	c #EDE4B8",
"e.	c #EEE6BC",
"f.	c #EBE3C4",
"g.	c #F1EACA",
"h.	c #F7F0CA",
"i.	c #EBE4BF",
"j.	c #E9E0B6",
"k.	c #E4DBB3",
"l.	c #EEE5B8",
"m.	c #E8E0B7",
"n.	c #EAE2C0",
"o.	c #BBB59D",
"p.	c #090906",
"q.	c #ACA478",
"r.	c #EBE0A7",
"s.	c #E6DA9D",
"t.	c #E4D68E",
"u.	c #E4D898",
"v.	c #EEE6C0",
"w.	c #F9F5DC",
"x.	c #FBF5D5",
"y.	c #F5EDC4",
"z.	c #EFE8C6",
"A.	c #EEE9D3",
"B.	c #F5F0DE",
"C.	c #F7F3DE",
"D.	c #F4F0DB",
"E.	c #EFEAD2",
"F.	c #EFEAD3",
"G.	c #F6F1D3",
"H.	c #B1AC94",
"I.	c #0A0A08",
"J.	c #888267",
"K.	c #FBF3C9",
"L.	c #F2E8B2",
"M.	c #EDE3B1",
"N.	c #ECE2AF",
"O.	c #ECE3B4",
"P.	c #EDE7CB",
"Q.	c #EFE8C7",
"R.	c #F0E9C5",
"S.	c #ECE5C9",
"T.	c #E6E0CA",
"U.	c #E8E3CD",
"V.	c #E6E0C7",
"W.	c #E4DDC0",
"X.	c #E1DABA",
"Y.	c #E2DAB5",
"Z.	c #EEE5BA",
"`.	c #817C67",
" +	c #4E4D44",
".+	c #FEFADB",
"++	c #F6F1CD",
"@+	c #F0E8BA",
"#+	c #EFE6B5",
"$+	c #EFE5B3",
"%+	c #F1E7B3",
"&+	c #EBE1A6",
"*+	c #F0E7BD",
"=+	c #F2EABC",
"-+	c #F3EBC1",
";+	c #F4ECC3",
">+	c #F3EDC6",
",+	c #F4EDC5",
"'+	c #F1E8B4",
")+	c #4C4A3B",
"!+	c #141415",
"~+	c #C0BB9B",
"{+	c #FFFEF3",
"]+	c #FFFFFF",
"^+	c #FFFFFE",
"/+	c #FEFEFF",
"(+	c #FEFEFE",
"_+	c #FDFDFC",
":+	c #FFFFFD",
"<+	c #C3C3C0",
"[+	c #403F3D",
"}+	c #F3EFDB",
"|+	c #FCF9E7",
"1+	c #FCF8E5",
"2+	c #FDFAE7",
"3+	c #FCFAEB",
"4+	c #FCFAED",
"5+	c #FDFBEE",
"6+	c #FAF7E7",
"7+	c #F6F3E2",
"8+	c #F4F0DD",
"9+	c #F7F3E0",
"0+	c #F9F5E2",
"a+	c #F6F3E1",
"b+	c #F2EDD5",
"c+	c #403E38",
"d+	c #423F39",
"e+	c #F8F2DB",
"f+	c #F5EFD3",
"g+	c #F5EFD2",
"h+	c #F3EBC3",
"i+	c #F4EECA",
"j+	c #F8F4DC",
"k+	c #F8F4DE",
"l+	c #F6F1D8",
"m+	c #F4EED1",
"n+	c #F4EDD1",
"o+	c #FBF6DD",
"p+	c #413F37",
"q+	c #262624",
"r+	c #C0BDB3",
"s+	c #E8E5D9",
"t+	c #F3F0E3",
"u+	c #F2EEDE",
"v+	c #F2EDDB",
"w+	c #F0ECDC",
"x+	c #F2EDDD",
"y+	c #F5F1E1",
"z+	c #ECE8DA",
"A+	c #C6C3B9",
"B+	c #282726",
"C+	c #050404",
"D+	c #464541",
"E+	c #817F79",
"F+	c #A9A7A0",
"G+	c #BAB8B1",
"H+	c #B7B6B0",
"I+	c #A5A39E",
"J+	c #7E7C75",
"K+	c #464440",
"L+	c #040404",
"M+	c #020202",
"N+	c #0A0A0A",
"              . + @ # $ .               ",
"          % & * = - ; > , ' %           ",
"        ) ! ~ { ] ^ / ( _ : < [         ",
"      } | 1 2 3 4 5 6 7 8 9 0 a b       ",
"    c d e f g h i j k l m n o p q c     ",
"  r s t u v w x y z A v B C D C E s r   ",
"  F G H I J K L M N O P Q R S T U V W   ",
"X Y Z `  ...+.@.#.$.%.&.*.=.-.;.>.,.'.).",
"!.~.{.].^./.(._.:.<.[.}.|.1.2.3.4.5.6.7.",
"8.9.0.a.b.c.d.e.| f.g.h.i.j.k.l.m.n.o.8.",
"p.q.r.s.t.u.v.w.x.y.z.A.B.C.D.E.F.G.H.I.",
").J.K.L.M.N.O.P.Q.R.S.T.U.V.W.X.Y.Z.`.).",
"   +.+++@+{.#+$+%+&+0 *+=+-+;+>+,+'+)+  ",
"  !+~+{+]+]+]+]+]+]+^+]+/+/+(+_+:+<+r   ",
"    [+}+|+1+2+3+4+5+6+7+8+9+0+a+b+c+    ",
"      d+e+f+g+h+i+j+k+l+m+n+g+o+p+      ",
"        q+r+s+t+u+v+w+x+y+z+A+B+        ",
"          C+D+E+F+G+H+I+J+K+L+          ",
"              M+N+@ @ N+.               "};
