/* XPM */
static char *jupiter[] = {
/* width height num_colors chars_per_pixel */
"    17    20        2            1",
/* colors */
". c #ffffff",
"# c #000000",
/* pixels */
"#################",
"#################",
"#####...#########",
"####.....####.###",
"###..###..##..###",
"##..#####..##.###",
"##..#####..##.###",
"##..#####..#..###",
"###.#####..##.###",
"#########..##.###",
"########..##..###",
"########.####.###",
"#######..####.###",
"#####...####..###",
"###.............#",
"#############.###",
"#############.###",
"############..###",
"#############.###",
"#################"
};
