/* XPM */
static char *marsSmall[] = {
/* width height num_colors chars_per_pixel */
"    13    13        2            1",
/* colors */
". c #000000",
"# c #ff0000",
/* pixels */
"#########....",
"###########..",
"##########.#.",
"###....##.##.",
"#..####..####",
"#.######.####",
".########.###",
".########.###",
".########.###",
".########.###",
"#.######.####",
"#..####..####",
"###....######"
};
