/* XPM */
static char *mars[] = {
/* width height num_colors chars_per_pixel */
"    21    21        2            1",
/* colors */
". c #ffffff",
"# c #000000",
/* pixels */
"#####################",
"#####################",
"###############......",
"###############......",
"#################....",
"################.....",
"########...####...#..",
"#####............##..",
"#####...####.....####",
"####..#######...#####",
"###..##########..####",
"##...##########..####",
"##..###########..####",
"##..###########..####",
"##..###########..####",
"###..##########..####",
"###..##########..####",
"####..#######...#####",
"#####....#.....######",
"#####.........#######",
"#########.###########"
};
