/* XPM */
static char *mercury[] = {
/* width height num_colors chars_per_pixel */
"    17    25        2            1",
/* colors */
". c #ffffff",
"# c #000000",
/* pixels */
"#################",
"#################",
"####.########.###",
"####.#######..###",
"####..######..###",
"#####..####..####",
"######......#####",
"#####...#....####",
"####..######..###",
"###..########.###",
"###.#########..##",
"###.#########..##",
"###.##########.##",
"###.#########..##",
"###..########..##",
"###..#######..###",
"####...####..####",
"######......#####",
"########..#######",
"########..#######",
"######.#...######",
"######.....######",
"########.########",
"########..#######",
"#################"
};
