/* XPM */
static char *moon[] = {
/* width height num_colors chars_per_pixel */
"    18    21        2            1",
/* colors */
". c #ffffff",
"# c #000000",
/* pixels */
"##################",
"##################",
"###########..#####",
"########.......###",
"######...##..#####",
"#####..###..######",
"####..###..#######",
"####.###..########",
"###..###.#########",
"###..###.#########",
"###..##..#########",
"###..###.#########",
"###..###.#########",
"####.###..########",
"####..###.########",
"#####..##..#######",
"######..##...#####",
"#######........###",
"#########.....####",
"##################",
"##################"
};
