/* XPM */
static char *fullMoonImage[] = {
/* width height num_colors chars_per_pixel */
"    66    66      256            2",
/* colors */
".. c #000000",
".# c #020202",
".a c #040404",
".b c #060606",
".c c #080808",
".d c #090909",
".e c #0b0b0b",
".f c #0d0d0d",
".g c #0f0f0f",
".h c #111111",
".i c #131313",
".j c #151515",
".k c #171717",
".l c #191919",
".m c #1a1a1a",
".n c #1c1c1c",
".o c #1e1e1e",
".p c #202020",
".q c #222222",
".r c #000000",
".s c #252525",
".t c #272727",
".u c #292929",
".v c #2b2b2b",
".w c #2d2d2d",
".x c #2f2f2f",
".y c #303030",
".z c #323232",
".A c #343434",
".B c #363636",
".C c #383838",
".D c #393939",
".E c #3b3b3b",
".F c #3d3d3d",
".G c #3f3f3f",
".H c #404040",
".I c #424242",
".J c #444444",
".K c #454545",
".L c #474747",
".M c #494949",
".N c #4a4a4a",
".O c #4c4c4c",
".P c #4e4e4e",
".Q c #4f4f4f",
".R c #515151",
".S c #525252",
".T c #545454",
".U c #565656",
".V c #575757",
".W c #595959",
".X c #5a5a5a",
".Y c #5c5c5c",
".Z c #5d5d5d",
".0 c #5f5f5f",
".1 c #606060",
".2 c #626262",
".3 c #636363",
".4 c #656565",
".5 c #666666",
".6 c #686868",
".7 c #696969",
".8 c #6b6b6b",
".9 c #6c6c6c",
"#. c #6d6d6d",
"## c #6f6f6f",
"#a c #707070",
"#b c #727272",
"#c c #737373",
"#d c #747474",
"#e c #767676",
"#f c #777777",
"#g c #787878",
"#h c #7a7a7a",
"#i c #7b7b7b",
"#j c #7c7c7c",
"#k c #7d7d7d",
"#l c #7f7f7f",
"#m c #808080",
"#n c #818181",
"#o c #828282",
"#p c #848484",
"#q c #858585",
"#r c #868686",
"#s c #878787",
"#t c #888888",
"#u c #8a8a8a",
"#v c #8b8b8b",
"#w c #8c8c8c",
"#x c #8d8d8d",
"#y c #8e8e8e",
"#z c #8f8f8f",
"#A c #919191",
"#B c #929292",
"#C c #939393",
"#D c #949494",
"#E c #959595",
"#F c #969696",
"#G c #979797",
"#H c #989898",
"#I c #999999",
"#J c #9a9a9a",
"#K c #9b9b9b",
"#L c #9c9c9c",
"#M c #9d9d9d",
"#N c #9e9e9e",
"#O c #9f9f9f",
"#P c #a0a0a0",
"#Q c #a1a1a1",
"#R c #a2a2a2",
"#S c #a3a3a3",
"#T c #a4a4a4",
"#U c #a5a5a5",
"#V c #a6a6a6",
"#W c #a7a7a7",
"#X c #a8a8a8",
"#Y c #a9a9a9",
"#Z c #aaaaaa",
"#0 c #ababab",
"#1 c #acacac",
"#2 c #adadad",
"#3 c #aeaeae",
"#4 c #afafaf",
"#5 c #b0b0b0",
"#6 c #b0b0b0",
"#7 c #b1b1b1",
"#8 c #b2b2b2",
"#9 c #b3b3b3",
"a. c #b4b4b4",
"a# c #b5b5b5",
"aa c #b6b6b6",
"ab c #b6b6b6",
"ac c #b7b7b7",
"ad c #b8b8b8",
"ae c #b9b9b9",
"af c #bababa",
"ag c #bababa",
"ah c #bbbbbb",
"ai c #bcbcbc",
"aj c #bdbdbd",
"ak c #bebebe",
"al c #bebebe",
"am c #bfbfbf",
"an c #c0c0c0",
"ao c #c1c1c1",
"ap c #c1c1c1",
"aq c #c2c2c2",
"ar c #c3c3c3",
"as c #c4c4c4",
"at c #c4c4c4",
"au c #c5c5c5",
"av c #c6c6c6",
"aw c #c7c7c7",
"ax c #c7c7c7",
"ay c #c8c8c8",
"az c #c9c9c9",
"aA c #c9c9c9",
"aB c #cacaca",
"aC c #cbcbcb",
"aD c #cbcbcb",
"aE c #cccccc",
"aF c #cdcdcd",
"aG c #cdcdcd",
"aH c #cecece",
"aI c #cfcfcf",
"aJ c #cfcfcf",
"aK c #d0d0d0",
"aL c #d1d1d1",
"aM c #d1d1d1",
"aN c #d2d2d2",
"aO c #d3d3d3",
"aP c #d3d3d3",
"aQ c #d4d4d4",
"aR c #d5d5d5",
"aS c #d5d5d5",
"aT c #d6d6d6",
"aU c #d6d6d6",
"aV c #d7d7d7",
"aW c #d8d8d8",
"aX c #d8d8d8",
"aY c #d9d9d9",
"aZ c #d9d9d9",
"a0 c #dadada",
"a1 c #dbdbdb",
"a2 c #dbdbdb",
"a3 c #dcdcdc",
"a4 c #dcdcdc",
"a5 c #dddddd",
"a6 c #dddddd",
"a7 c #dedede",
"a8 c #dfdfdf",
"a9 c #dfdfdf",
"b. c #e0e0e0",
"b# c #e0e0e0",
"ba c #e1e1e1",
"bb c #e1e1e1",
"bc c #e2e2e2",
"bd c #e2e2e2",
"be c #e3e3e3",
"bf c #e4e4e4",
"bg c #e4e4e4",
"bh c #e5e5e5",
"bi c #e5e5e5",
"bj c #e6e6e6",
"bk c #e6e6e6",
"bl c #e7e7e7",
"bm c #e7e7e7",
"bn c #e8e8e8",
"bo c #e8e8e8",
"bp c #e9e9e9",
"bq c #e9e9e9",
"br c #eaeaea",
"bs c #eaeaea",
"bt c #ebebeb",
"bu c #ebebeb",
"bv c #ececec",
"bw c #ececec",
"bx c #ededed",
"by c #ededed",
"bz c #eeeeee",
"bA c #eeeeee",
"bB c #efefef",
"bC c #efefef",
"bD c #f0f0f0",
"bE c #f0f0f0",
"bF c #f1f1f1",
"bG c #f1f1f1",
"bH c #f2f2f2",
"bI c #f2f2f2",
"bJ c #f3f3f3",
"bK c #f3f3f3",
"bL c #f4f4f4",
"bM c #f4f4f4",
"bN c #f5f5f5",
"bO c #f5f5f5",
"bP c #f6f6f6",
"bQ c #f6f6f6",
"bR c #f7f7f7",
"bS c #f7f7f7",
"bT c #f8f8f8",
"bU c #f8f8f8",
"bV c #f8f8f8",
"bW c #f9f9f9",
"bX c #f9f9f9",
"bY c #fafafa",
"bZ c #fafafa",
"b0 c #fbfbfb",
"b1 c #fbfbfb",
"b2 c #fcfcfc",
"b3 c #fcfcfc",
"b4 c #fdfdfd",
"b5 c #fdfdfd",
"b6 c #fefefe",
"b7 c #fefefe",
"b8 c #ffffff",
"b9 c #ffffff",
/* pixels */
".r.r.r.r.r.r.r.r.r.r.r.r.r.r.r.r.r.r.r.r.r.r.r.r.r.r.r.r.r.r.r.p.u.y.t.o.r.r.r.r.r.r.r.r.r.r.r.r.r.r.r.r.r.r.r.r.r.r.r.r.r.r.r.r.r.r",
".r.r.r.r.r.r.r.r.r.r.r.r.r.r.r.r.r.r.r.r.r.r.r.r.r.qa5bqbLbObpbqbObPbBbRbPbPbNbEbU.r.r.r.r.r.r.r.r.r.r.r.r.r.r.r.r.r.r.r.r.r.r.r.r.r",
".r.r.r.r.r.r.r.r.r.r.r.r.r.r.r.r.r.r.r.r.r.r.earbPbua2az#5aZaOaKbibrbPbGbea3aPaPaIb.bQbO.C.r.r.r.r.r.r.r.r.r.r.r.r.r.r.r.r.r.r.r.r.r",
".r.r.r.r.r.r.r.r.r.r.r.r.r.r.r.r.r.r.r.rb.a5aRa4beaOaWaCa0aCaEawaEaBaza9asaC#OavaBaHauaRbvbtb0.r.r.r.r.r.r.r.r.r.r.r.r.r.r.r.r.r.r.r",
".r.r.r.r.r.r.r.r.r.r.r.r.r.r.r.r.r.raFbsaObqa5bgaqaAae#B#Aai#A#g#5aKaf#9#7#TayaSab#E#9aBapaRbZbWbY.r.r.r.r.r.r.r.r.r.r.r.r.r.r.r.r.r",
".r.r.r.r.r.r.r.r.r.r.r.r.r.r.r.raraTbcbha3aWabaP#Zata##j#h#c#a#s.Z#k.S.X#E#6#TaxaVabavaiaeaIbbbXblbcbZ.r.r.r.r.r.r.r.r.r.r.r.r.r.r.r",
".r.r.r.r.r.r.r.r.r.r.r.r.r.r..aN#hbda2ac#D#j#x#i.0aHai#4b..7#aalaqbqa8#b#N.5#Xab#y.1#U#c#a.9#6bebzbxbqbq.p.r.r.r.r.r.r.r.r.r.r.r.r.r",
".r.r.r.r.r.r.r.r.r.r.r.r.raTa9#S#U#5.Z#s#wac#0aMaAaIaRagabatbiaa.Sai#Rb#.V#S#K#D#O#m#B#o#v#z.8#AbJa5bYaRbMb5.r.r.r.r.r.r.r.r.r.r.r.r",
".r.r.r.r.r.r.r.r.r.r.r.raR#r#Za.#9#V.0#z#RbbaYbcazaka2am#d.Uad#D#Z#1#Ya4bRaGac#Y#Ga0aOadaf#tamaQa7a1aZa4bJbzbL.r.r.r.r.r.r.r.r.r.r.r",
".r.r.r.r.r.r.r.r.r.r.raJ#r#R#7#Lag#Aa3aXaVbs#a#p#v#l#c#c#b.V#.#O.U.8#ubfavaIaC#KadadapawaEa7a#agawbrbbbxboaubkbG.s.r.r.r.r.r.r.r.r.r",
".r.r.r.r.r.r.r.r.r.q#T#j#p#B#yaf#c#lazaDaxa7#a#d#D##.5###g#s#d#h##.3#f###5aSawaH#2azblaOaR#KbbasazaCaGabblaJ#tbMbY.s.r.r.r.r.r.r.r.r",
".r.r.r.r.r.r.r.r.razaR#d#t#q#L#l#gavaSaFaUaT#a.X.5.4.9.N.9#e.9#w.U.5.1.Z#t#QaLaja4bmb.aKaBaG#3a2aOaAaoaba7aPaPac.Oby.r.r.r.r.r.r.r.r",
".r.r.r.r.r.r.r.ra.#k#e#A#u#4#t#C#jaHapah#A.8#..V.8.Y.6#j.3.8#n#g.6#c#d#E#y#Xay#6aQbvaJaYaW#O#JaN#1aNaHa5aOb9#QbbafbqbZ.r.r.r.r.r.r.r",
".r.r.r.r.r.r.r#1#n#l#u#J#A#y#D#Z#B#MaU#m#a.Y#..4.8.7#a.0.9#g#l#r#m#Z#5aG#N.2a##1akaOaTaWa3aX.8#1#Gay#b#eaSaW#VaVaOa8a1bZ.r.r.r.r.r.r",
".r.r.r.r.r.r.A#O#j#H#s#w#o#n#z#W#N#xay#l.6#f#w#x#b.5.0#e.8#h#c#m.5#j#q#A.7.J#fagaQ#Z.Q.O#wabaH#0#p#Y#.#lbba7a.a7bybLaLa4#O.r.r.r.r.r",
".r.r.r.r.r.r#R#c#6#z#y#y#A#V#S#L#l#A#A#d#s#k##.7#b.5.6.6#d.6#b#b.X#a.9#l#5#Y.1#ja0.O#s.6#a#s.P#d.9bsac.2#7aLbobIa0aXbPbcbx.r.r.r.r.r",
".r.r.r.r.r#j.4#C#K#x#D#E#F#7#Ya.#K#R#4#q#o#b#e.4#c.Y#c#a#c#a#t#.#b.8#D#9#N#J#b#c#N.1.S.7#d.6#s#b#faGbc#5a8blbcbaaOa0boaJbwbT.r.r.r.r",
".r.r.r.r.s#h#v#Z#z#B#B#Q#X#wa.#R#r#Q#w#F#C#j#a#g#c#i#i#j.3.0#f.Y.3at#Da##T#3.T#c.8#d.U.1#c.3#m#c.1##b8aNa6bsaZaHbwaWa3bMaXbM.d.r.r.r",
".r.r.r.r#p#l#x#p#E#L#Q#X#8bF#9adaN#4#0#Y#L#v#u#E#F#x#a#p#kak#T#A#5aP#A#v#w#6#r#a#c#A#p.5#B#f#t#r#a#f#naSbpbabcaYbbbxaUb#bFbibU.r.r.r",
".r.r.r.r#e#C#X#v#O#v#A#IaxaCaAae#5#s#w#z#E#D#h#m#w#x#a#G#g#B#y#kaw#U#7#O#y.T#N#a#g.8#g#f#t#b#d#f#g.S.TafbMbMaQaRaNaPaN#3buaVa7.o.r.r",
".r.r.r#I#t#p#v#9#Q#w#QaoaC#3awad#C#z#z#u#Baf#a#R#H#s#y#N#b#k#w#e#d#T#0#8#Jakat#A.V.W.Z#a#a#h#m#o#v#b.OaObPbFaZaYaOavaraRav#9bVb0.r.r",
".r.r.rak#1#f#y#A#z#A#E#S#5#S#5#7#Ba4#D#Y#5ad#T#R#f#d#R#9#b#a#w#.#m.1#laZaYaz#Y#O#c.W#a#a###4#e#b#c#g.0#Payb#aBb##bagazaH#c.Xaubx.r.r",
".r.r#ga##h#g#u#m#m#B#y#D#O#L#1aC#P#E#N#D#T#r#M#P#q#x#o#F#y#m#p.7.9.1.0a.aSa5#2a##d.S.5#a.1#1#j#f#d#f#a.Ya6aK#qbIasaKaM#p#d#F#gbmbh.r",
".r.r#W#3#9#C#a#o#w#M#V#x#J#W#7#1#4#B#S#E#4#Babau#y#H#z#6#w#A#E#o#P#vaqavaZ#u#M#h#T#p#R.Y#b#g#t#d#j##.4aLaU#S#G#Ga5bdbn#V#q#j.5#mbx.r",
".r.r#6#z#e#m#w#p#o#D#v#5#Q#Q#4#9aY#Q#z#MamaN#2ay#5#x#ga.#6af#8ayaxao#4au#D#N#O#C#y###k#t#L.0#g.W.2#q#a#b#u#U#p#.#8bgbibp.1#f#a.VbI.r",
".r.Gbe#c#b#l#t#o#y#v#D#N#P#A#L#7#6#z#T#Kar#5#Y#7aqatad#8aqaaae#c.7#6#Y#9#A###e#d#Tb0af#WaNbQ#Yaja.##.4#g#l#Z#g#aaDaGapaS#j.5.7#fbw.B",
".r#Ea.#k#J#u#j#A#y#M#Y#D#I#Y#L#6#2#u#j#z#0a7aIaCamawan#Zal#V#6#X#d#a.Y#m#a#e#n#h#j#LajabbhaQal#c.6###c#n#p.5#g.5.2bdaPbs#z##.5.Waual",
".r#W#5aC#9#m#r#y#y#x#D#B#C#y#9a2#1#P#g#RafaQauaubMbF#5aiacaQ#Q#x#j##.U#A#d#b#c.Z.8#Y#A#ibi#o#m.4#h#c#r#x#g#c#e.8.0.4aGbOaQ.9###taQbe",
".r#La1au#Q#c#paw#J#E#t#m#z#QadbwaOar#r#Aaa#WasaKbbbaay#9agaa#J#h#f.7#L#0ataf#t#i#.#S#EaC#taV#g.3.9.5#y#k#d#k##.3#p#l#Dbfbgbd.9aFa7aW",
".raeajaCaS#m#r#M#x#B#B#x#P#FaaaMaX#8#n#Can#QaOa.#4#W#3#U#y#N#2#B###BamaeaRav#3a##S#w#TaNa4au#b#b#d#A.1#c#i#h#b#d.7at#L#za2bjaAanaoad",
".kataCaNaA#P#w#p#B#S#C#E#Q#Y#9ajaW#z#T#V#8axaPaC#X#4a##n#m#T#P.6#g#UauaFaPabaIa0#LaTa0a9aT#2#O#t#A#U#w#x#N#x#f#t#f#m#F#5#2aAaPa4.Y#3",
".m#4a1a6aF#r#l#p#p#I#D#o#C#q#M#UaC#z#2#G#B#Rayaeau#W#D#h#G#H#g#i#v#uaoarar#9bzawa5bwbUaPaPau#P#Z#y#b#q.5#s#Fae#z.9#i#5a1#eaIav#U#9bb",
".CaAaDaCaR#v#i#s#r#u#w#C#y#x#L#5at#O#p#N#Oab#2aoataa#I#r#raR#i#.#F#q#G#3ac#4aCaXaUbkbNb1aI#S#G#f#i#b#a#c#y#P#B#w#g#Nam#l#a##aN#Y#Gbe",
"#g#X#PaPa##C#s#y#w#P#E#C#n#q#B#A#w#B#B#N#9#2#Caz#eaCac#c#B#e#A#Kah#5#6#oak#9aMa9bka7bGbaaOayabai.2#c#u#e#aacaX.1#day#o#k#b.3#e#5#bbb",
".S#3a.aNbBau#n#u#w#y#w#m#A#x#z#g#C#5#x#p#U#7#P#E#n#Lac#DaM#w#D#6aOa5aA#vapawbzbea6aYbda6aOaWaFaY#Cbw#x#B#ob6bfaUaTaE#z#D#c#..Z#N#jao",
".kaO#4#F#lag#8#q#m#x#3#C#r#y#L.0#w#D#M#xaA#F#p#6#w#Pai#P#wa.#6avaMbeayaBayaxaKa5bnaKaXaLa4aCaXbjaIbf#y#vakbyaOa9aO#e#v#M#a#q#x#E#UaE",
".rawaO#X.Ta3#E#g#c#j#w#o#x#p#O#a#x#4#c#N#wa.#6#iahataaa.#5#QaVaXaGaAa3a6a8aUaVbdaXa2a7aQbLa9bFbNb.aq#v#QalbiaxaxaQ#R#t#r#z#c#y#zb.aN",
".ra4atataEaraa#n#u#u#o#a#p#r#sab#n#y#taUam#A#n#m#pahat#9#M#obmaUaBaYaOaNaGaxaQa5bObqaZaXaHa6bWbdaF#O#U#Baqa9aYaQ#9#R#s#r#b#d#V#S#4aH",
".q#taya8agaAaf#K#b#h#x#r#m#o#N#g#q#o#7#6bf#b###v#z#Savat#c#n#waYaOaXaCaAatbdara0bIbaa6bHasa1bebfam#4#6#waqaNa6bKaA#G#r#u#f#R#ua0aZaC",
".raJayayaPaHaF#2#baw#p#9#e#pas.1#y#u#i#A#T#c#h#y#a#n#Qau######aCaNa2ahasa#aCaKaEaYaSaYaXaXbRa3bRbiaAag#OauaPbdaCbzaL#W#i#a#MaBbBaCaQ",
".r#eaDaNaC#7a6aX#Eag#8#g#A#8ay#C#A#c.3#i#k#e.8#g#b#L#HaQav#W#y#8aOaVbcavasaCabbrb#aYaMa4bLbAbtbGbFbgaO#9#X#G#8aRbc#1av#o#p#DaGaiafa5",
".r.rahauaAagaoaGaTaC#1a.a.a.aRaJ#r#f#a.0#K#Ba.#M#iag#S#5#e#g#w#n#maWbsaP#8a6aXbhaybnaZaPbubqaUbubZbQbeaNaa#q#B#qbgaK#X#r#N#A#XbGa0.j",
".r.ragaaa.#Fakak#9aQ#7#6abaEasaI#b#E#r#x.2aBbb#y#r#R#u#i#u#d#z#q#yaRaWaXaTajaxaMaSa9aVbba3aUa1a3bObcbG#h#T#o#waGbaama.bb#r#Ha#aCau.r",
".r.raCaNaTanaqaxanaja.#4axbBaubU#.aX.5.7.WagaU.9#b#w#A#y#L#A#g#uaEaNa9aFavaraXa8bbb1a8aFa3ahaWa8b.bQba#8#Q#y#jbCaMaPaM#6#k#2#EayaO.q",
".r.r.raEa4aCaWawaD#3aIaXbnab#e.0.T.8#M#A#AaJ#n#d#.#e#o#q.5#x#caHb.aMa8a7aGaTa0aNaBaOaTaxaja1azaAaWbTaN#8#y#v#daG#Fat#N#K#4#5#7#Ta#.r",
".r.r.ra9aFaFbAaNaFa##2aqaA#b.W.9.W.T.3aC#5#g#U#O#t#c#H###r#x#a#3aXa7bjaBaNamaNadaraGaOaBa7aIaya9b.aGaVbl#Y###e#Tay#Bab#ebxaW#9au.r.r",
".r.r.raK#T#PbpbEaPakaZaraY#d.0.3.R.Y.Wa#.W#b#x#d#t.4#k#g#b#y#o#9aYa1aJaZaXaFalaAawaNaNbeaKaHayb.aPbcbj#4aqaBaT#BaZ#3#q#LaSa#akaR.r.r",
".r.r.r.rabah#ObeakanbmaD#n.8.8.6.X.6.T###r#e.1#8#v.4.8#f#b#f#P#P#4b#aHaPa3bSazaYaRa7bYbCaj#9a2aqb#bxaH#5aFaF#J#2aaaJ#Haravaiaw.r.r.r",
".r.r.r.raH#N#R.9aEajaLbca8ai.S.T.S.4#a#Z#wav#v###e#..2#d#b#g#e#sa0bfaJbjbF#3acblbsbnbIaea.acaBbTbbaFavaZaDaeaLaxaTanaaauaXaDab.r.r.r",
".r.r.r.r.sad#M#3#BaBaiaZa0aVaIac#c.6#daha##d###ka4#T#qa##yamatazbrbea9brbzbOasaVbNa0ai#6aDaIboaoazaya8ayadasabazaKatbpa3azas.r.r.r.r",
".r.r.r.r.r#6#4#j#3#Bavaxb4bEaS#6#S#nadaU.5.Na4ajawbba5aD#za5bfbAbsbnaRbDb.bcblaAaDalawaUbaaRahayaHaMayaaaxakayalbfbbaNaJboay.r.r.r.r",
".r.r.r.r.r.radak#6#1#I#4al#8ak#.aIaL#OaZaa#xad#fa8bra4aob.bdbIbibRb0bDaVbxbfbeataCaIawbdbLaJaXaTa4aM#7ajaSaF#6aMb0a0aWbE#5.r.r.r.r.r",
".r.r.r.r.r.r.jazah#F#4#5awa#aB.5#faWam#Uap#6amaBaTaubzbNbDbybIbAbZbRbMa4brbQaQaRbvaCaYa0aKaaahaAaGaFa.ataxafawaQa1bYaDas.r.r.r.r.r.r",
".r.r.r.r.r.r.r#8ava6#DaB#U#Q#Zaa#3#1aTaJaKaXaNa1azaXaNbcbNbsbXbRbIb0bNa1bmboa5bKb.aFacawaz#9azaBag#5ataDazae#4a0aYat#Q#d.r.r.r.r.r.r",
".r.r.r.r.r.r.r.raIaFav#5#8#KabaGaQaEaxauaZaVa2#E#8a5aNa7bgbvbqbnbNbsbEbAbFbKbba6#3aYbraTaQ#9aJaPaYadau#Oajaha6aaaEaK#Z.r.r.r.r.r.r.r",
".r.r.r.r.r.r.r.r.rauat#1#6#L#eaZaa#YaZbdaYaMbMahaPaSbtbgbbaAaiaTbebLbxbza5a0bOaHaPbvaWaNaWa8ad#Lava8awa.ajaIaq#6az#1.r.r.r.r.r.r.r.r",
".r.r.r.r.r.r.r.r.r.rayao#GaM#SakavahaWbEavaUaJaTbka6aKbmbebYbDatbcbSbSbYbpbsb9aUabbWaAaXboasaBabaybaaDaGaG#X#V#W#3.r.r.r.r.r.r.r.r.r",
".r.r.r.r.r.r.r.r.r.r.rafaB#9araxaV#5a#aMaWbma5ac#9aTaYbsbwa3aSaSa3btbubpbnaJaKa.aJayafaXacaHaQaVa.aBa1as#4#7#9#k.r.r.r.r.r.r.r.r.r.r",
".r.r.r.r.r.r.r.r.r.r.r.rayaU#Z#u#6a5ayava4aNaXaSaxaSaDbra0bobsbAbibFbxbxbDa2aAayaGaF#8a.agaXaUb.aVaN#Uagauau.X.r.r.r.r.r.r.r.r.r.r.r",
".r.r.r.r.r.r.r.r.r.r.r.r.ragaWaoaZaJawaqaDayaVaca.aHa4bmbGbEbIa7aRbOaQbBbab#b#aqaPawa9awaHaTaDaBauaLaKa1#2.k.r.r.r.r.r.r.r.r.r.r.r.r",
".r.r.r.r.r.r.r.r.r.r.r.r.r.r.raYaPaBa8bc#V#8avahawaObuataXbdbbbUbfbtaya2aSaOaRaQaRaPazauata7aFaJaf#4al#7.r.r.r.r.r.r.r.r.r.r.r.r.r.r",
".r.r.r.r.r.r.r.r.r.r.r.r.r.r.r.ra6bYa1a5bpbjbmaZapa4aYavaKbJavbibTbcaOaOa2aDaQaNa6awaJaFaSagaaaIadaX.P.r.r.r.r.r.r.r.r.r.r.r.r.r.r.r",
".r.r.r.r.r.r.r.r.r.r.r.r.r.r.r.r.r.sa6bDbDbnbHbda6b#bsa8axbDbybra6aOaFaVaoa8bwaSaGayaLaFaVacaxaDbb.r.r.r.r.r.r.r.r.r.r.r.r.r.r.r.r.r",
".r.r.r.r.r.r.r.r.r.r.r.r.r.r.r.r.r.r.r.rbxa0a6b.bgbqbQbubJbXbYbHbtbka5bgaNbbaYaRa0a5aMaQbrbgaO.r.r.r.r.r.r.r.r.r.r.r.r.r.r.r.r.r.r.r",
".r.r.r.r.r.r.r.r.r.r.r.r.r.r.r.r.r.r.r.r.r.r.ubAbObubcbraTb.bwbHbHbcbQa9bXbebxbkbvbqbVba.l.q.r.r.r.r.r.r.r.r.r.r.r.r.r.r.r.r.r.r.r.r",
".r.r.r.r.r.r.r.r.r.r.r.r.r.r.r.r.r.r.r.r.r.r.r.r.r.s#QbhbcbjbxbCbgbQb0bQbvbNbobHaI.o.r.r.r.r.r.r.r.r.r.r.r.r.r.r.r.r.r.r.r.r.r.r.r.r"
};
