/* XPM */
static char *neptune[] = {
/* width height num_colors chars_per_pixel */
"    19    23        2            1",
/* colors */
". c #ffffff",
"# c #000000",
/* pixels */
"###################",
"###################",
"###################",
"####..#########.###",
"###...########...##",
"##.....##..##.....#",
"####.###....###.###",
"####.###.....##..##",
"####.####..####..##",
"####.####..####.###",
"####.####..####..##",
"####.####..####.###",
"####..###..###..###",
"#####..........####",
"#######......######",
"#########..########",
"#########..########",
"#######.......#####",
"########.....######",
"#########..########",
"#########..########",
"###################",
"###################"
};
