/* XPM */
static char *saturn[] = {
/* width height num_colors chars_per_pixel */
"    14    22        2            1",
/* colors */
". c #ffffff",
"# c #000000",
/* pixels */
"##############",
"##############",
"##############",
"####..########",
"###......#####",
"###......#####",
"####..########",
"####..#....###",
"####....###..#",
"####..######.#",
"####..######.#",
"####..######.#",
"####..######.#",
"####..#####..#",
"####..#####..#",
"####..####..##",
"#########..###",
"#########.####",
"########..####",
"#########...##",
"#########...##",
"##############"
};
