/* XPM */
static char *sun[] = {
/* width height num_colors chars_per_pixel */
"    21    19        2            1",
/* colors */
". c #ffffff",
"# c #000000",
/* pixels */
"#####################",
"#####################",
"########.....########",
"######.........######",
"####...#######..#####",
"####..#########..####",
"###..###########..###",
"##..#############..##",
"##.#######.######..##",
"##.######...######.##",
"##.#####....######.##",
"##.######...######.##",
"##..#############..##",
"###.#############.###",
"###..###########..###",
"####..#########..####",
"#####...#####...#####",
"######.........######",
"##########.##########"
};
