/* XPM */
static char *sunSmall[] = {
/* width height num_colors chars_per_pixel */
"    13    13        2            1",
/* colors */
". c #000000",
"# c #ffff7d",
/* pixels */
"####.....####",
"##..#####..##",
"#..#######..#",
"#.#########.#",
".###########.",
".####...####.",
".####...####.",
".####...####.",
".###########.",
"#.#########.#",
"#..#######..#",
"##..#####..##",
"####.....####"
};
