/* XPM */
static char *uranus[] = {
/* width height num_colors chars_per_pixel */
"    15    20        2            1",
/* colors */
". c #ffffff",
"# c #000000",
/* pixels */
"###############",
"#######.#######",
"######...######",
"####......#####",
"#####.#.#######",
"#######.#######",
"#######.#######",
"######...######",
"####.......####",
"###..#####..###",
"##..#######..##",
"##.#########.##",
"#..###...###..#",
"#..###...###..#",
"##.#########.##",
"##..#######..##",
"##...######..##",
"###...###...###",
"#####.....#####",
"###############"
};
