/* XPM */
static char *venus[] = {
/* width height num_colors chars_per_pixel */
"    12    17        2            1",
/* colors */
". c #ffffff",
"# c #000000",
/* pixels */
"############",
"######..####",
"####......##",
"###.#####..#",
"##.#######.#",
"##.########.",
"##.########.",
"##.########.",
"##.#######..",
"###.#####..#",
"####......##",
"######.#####",
"######.#####",
"#####..#####",
"####.....###",
"######.#####",
"######.#####"
};
