/* XPM */
static char *WeakestMeteorRadiant[] = {
/* width height num_colors chars_per_pixel */
"    21    21        2            1",
/* colors */
". c #000000",
"# c #7d7d7d",
/* pixels */
"..........#..........",
".#........#........#.",
"..#.......#.......#..",
"...#......#......#...",
"....#.....#.....#....",
".....#....#....#.....",
"......#...#...#......",
".......#.....#.......",
"........#...#........",
".....................",
"#######.......#######",
".....................",
"........#...#........",
".......#.....#.......",
"......#...#...#......",
".....#....#....#.....",
"....#.....#.....#....",
"...#......#......#...",
"..#.......#.......#..",
".#........#........#.",
"..........#.........."
};
